<svg width="49" height="49" viewBox="0 0 49 49" fill="none" xmlns="http://www.w3.org/2000/svg">
<rect width="49" height="49" rx="7" fill="#12E859"/>
<path d="M13.8207 34.6944V13.3056C13.8207 13.3056 13.8207 13.8721 13.8207 15.0052C13.8207 16.1383 13.8207 17.6088 13.8207 19.4167V28.5833C13.8207 30.3912 13.8207 31.8617 13.8207 32.9948C13.8207 34.1279 13.8207 34.6944 13.8207 34.6944ZM13.8207 37.75C12.9817 37.75 12.2634 37.4508 11.6658 36.8524C11.0683 36.2541 10.7695 35.5347 10.7695 34.6944V13.3056C10.7695 12.4653 11.0683 11.7459 11.6658 11.1476C12.2634 10.5492 12.9817 10.25 13.8207 10.25H35.1793C36.0183 10.25 36.7366 10.5492 37.3342 11.1476C37.9317 11.7459 38.2305 12.4653 38.2305 13.3056V17.125H35.1793V13.3056H13.8207V34.6944H35.1793V30.875H38.2305V34.6944C38.2305 35.5347 37.9317 36.2541 37.3342 36.8524C36.7366 37.4508 36.0183 37.75 35.1793 37.75H13.8207ZM26.0256 31.6389C25.1865 31.6389 24.4682 31.3397 23.8707 30.7413C23.2732 30.1429 22.9744 29.4236 22.9744 28.5833V19.4167C22.9744 18.5764 23.2732 17.8571 23.8707 17.2587C24.4682 16.6603 25.1865 16.3611 26.0256 16.3611H36.7049C37.5439 16.3611 38.2623 16.6603 38.8598 17.2587C39.4573 17.8571 39.7561 18.5764 39.7561 19.4167V28.5833C39.7561 29.4236 39.4573 30.1429 38.8598 30.7413C38.2623 31.3397 37.5439 31.6389 36.7049 31.6389H26.0256ZM36.7049 28.5833V19.4167H26.0256V28.5833H36.7049ZM30.6024 26.2917C31.2381 26.2917 31.7784 26.0689 32.2234 25.6233C32.6684 25.1777 32.8908 24.6366 32.8908 24C32.8908 23.3634 32.6684 22.8223 32.2234 22.3767C31.7784 21.9311 31.2381 21.7083 30.6024 21.7083C29.9668 21.7083 29.4264 21.9311 28.9815 22.3767C28.5365 22.8223 28.314 23.3634 28.314 24C28.314 24.6366 28.5365 25.1777 28.9815 25.6233C29.4264 26.0689 29.9668 26.2917 30.6024 26.2917Z" fill="#102216"/>
</svg>
